<?xml version="1.0" encoding="UTF-8" standalone="no"?>
<svg
   xmlns:dc="http://purl.org/dc/elements/1.1/"
   xmlns:cc="http://creativecommons.org/ns#"
   xmlns:rdf="http://www.w3.org/1999/02/22-rdf-syntax-ns#"
   xmlns:svg="http://www.w3.org/2000/svg"
   xmlns="http://www.w3.org/2000/svg"
   xmlns:sodipodi="http://sodipodi.sourceforge.net/DTD/sodipodi-0.dtd"
   xmlns:inkscape="http://www.inkscape.org/namespaces/inkscape"
   version="1.1"
   id="Layer_1"
   x="0px"
   y="0px"
   viewBox="0 0 512.43774 384.15799"
   xml:space="preserve"
   sodipodi:docname="email.svg"
   width="512.43774"
   height="384.15799"
   inkscape:version="1.0.2 (e86c870, 2021-01-15)"><metadata
   id="metadata883"><rdf:RDF><cc:Work
       rdf:about=""><dc:format>image/svg+xml</dc:format><dc:type
         rdf:resource="http://purl.org/dc/dcmitype/StillImage" /><dc:title></dc:title></cc:Work></rdf:RDF></metadata><defs
   id="defs881" /><sodipodi:namedview
   pagecolor="#ffffff"
   bordercolor="#666666"
   borderopacity="1"
   objecttolerance="10"
   gridtolerance="10"
   guidetolerance="10"
   inkscape:pageopacity="0"
   inkscape:pageshadow="2"
   inkscape:window-width="1848"
   inkscape:window-height="1016"
   id="namedview879"
   showgrid="false"
   fit-margin-top="0"
   fit-margin-left="0"
   fit-margin-right="0"
   fit-margin-bottom="0"
   inkscape:zoom="0.56969052"
   inkscape:cx="640.86041"
   inkscape:cy="341.07589"
   inkscape:window-x="1992"
   inkscape:window-y="27"
   inkscape:window-maximized="1"
   inkscape:current-layer="Layer_1" />

<path
   style="fill:#000000;fill-opacity:1;stroke:#000000;stroke-width:0;stroke-linecap:butt;stroke-linejoin:miter;stroke-miterlimit:4;stroke-dasharray:none;stroke-opacity:1"
   d="M 0.31708383,71.681253 5.0003886e-7,346.00286 c 0,0 1.44342809996114,10.68388 8.33910989996114,20.37863 6.8956816,9.69476 15.4772346,13.9744 22.4306626,15.98474 6.953428,2.01034 14.92536,1.68826 14.92536,1.68826 l 424.511277,0.0953 c 0,0 6.34725,0.32866 15.51235,-3.17306 9.16509,-3.50173 19.94096,-14.13919 22.38388,-21.25185 2.44291,-7.11265 4.18443,-11.36978 4.16108,-14.9069 -0.0234,-3.53713 0.17401,-272.768877 0.17401,-272.768877 0,0 -0.89969,-3.62801 -3.92494,-7.01232 -3.02525,-3.3843 -9.98919,-2.80326 -11.74146,-1.39 -1.75227,1.41326 -47.99507,40.204947 -47.99507,40.204947 l -73.95554,63.22232 -60.68075,52.19936 -30.16008,26.38902 c 0,0 -3.76125,4.7999 -16.67543,8.70522 -12.91419,3.90532 -23.3411,0.033 -28.19883,-2.04841 -4.85773,-2.08143 -10.67216,-6.65667 -10.67216,-6.65667 L 163.56379,189.33865 91.880683,127.9701 40.372709,84.292403 16.160323,63.916483 c 0,0 -3.020455,-2.20522 -8.023277,-0.9522 -5.002822,1.25303 -7.8458902,6.39315 -7.81996217,8.71697 z"
   id="path885" /><path
   style="fill:#000000;fill-opacity:1;stroke:#000000;stroke-width:0;stroke-linecap:butt;stroke-linejoin:miter;stroke-miterlimit:4;stroke-dasharray:none;stroke-opacity:1"
   d="m 502.32192,30.503045 c 0,0 2.74391,-3.041826 2.93594,-6.307014 0.19203,-3.265188 -0.92424,-5.976872 -2.59163,-8.245853 -1.66739,-2.268981 -9.6125,-8.7631453 -9.6125,-8.7631453 0,0 -5.83,-3.837446 -13.10527,-5.825129 -7.27527,-1.98768299 -23.12171,-1.21343599 -23.12171,-1.21343599 l -376.2883,-0.039511 -39.825473,0.112138 c 0,0 -8.594842,0.262056 -15.650536,3.79138999 C 18.006747,7.5418177 15.293922,10.13151 10.399738,15.032536 5.5055549,19.933563 7.2139543,25.16305 7.7253211,26.801077 c 0.5113668,1.638027 2.0218835,3.580873 3.5113209,4.893875 1.489437,1.313002 37.562276,31.777001 37.562276,31.777001 l 37.690237,31.91681 39.331375,33.532317 45.37172,38.84857 54.09783,46.73758 14.82601,13.10128 c 0,0 5.13777,4.56032 8.73612,5.76851 3.59834,1.2082 6.66915,1.79365 12.29259,0.88135 5.62344,-0.9123 15.11414,-10.14968 15.11414,-10.14968 l 42.15206,-36.73848 55.32003,-47.41803 46.3684,-39.68943 40.83264,-34.594777 z"
   id="path887" /></svg>
