<?xml version="1.0" encoding="UTF-8" standalone="no"?>
<svg
   xmlns:dc="http://purl.org/dc/elements/1.1/"
   xmlns:cc="http://creativecommons.org/ns#"
   xmlns:rdf="http://www.w3.org/1999/02/22-rdf-syntax-ns#"
   xmlns:svg="http://www.w3.org/2000/svg"
   xmlns="http://www.w3.org/2000/svg"
   xmlns:sodipodi="http://sodipodi.sourceforge.net/DTD/sodipodi-0.dtd"
   xmlns:inkscape="http://www.inkscape.org/namespaces/inkscape"
   version="1.1"
   id="Capa_1"
   x="0px"
   y="0px"
   width="34.545px"
   height="34.545px"
   viewBox="0 0 34.545 34.545"
   style="enable-background:new 0 0 34.545 34.545;"
   xml:space="preserve"
   sodipodi:docname="phone.svg"
   inkscape:version="1.0.2 (e86c870, 2021-01-15)"><metadata
   id="metadata1011"><rdf:RDF><cc:Work
       rdf:about=""><dc:format>image/svg+xml</dc:format><dc:type
         rdf:resource="http://purl.org/dc/dcmitype/StillImage" /><dc:title></dc:title></cc:Work></rdf:RDF></metadata><defs
   id="defs1009" /><sodipodi:namedview
   pagecolor="#ffffff"
   bordercolor="#666666"
   borderopacity="1"
   objecttolerance="10"
   gridtolerance="10"
   guidetolerance="10"
   inkscape:pageopacity="0"
   inkscape:pageshadow="2"
   inkscape:window-width="1848"
   inkscape:window-height="1016"
   id="namedview1007"
   showgrid="false"
   inkscape:zoom="12.476481"
   inkscape:cx="23.233866"
   inkscape:cy="25.913816"
   inkscape:window-x="1992"
   inkscape:window-y="27"
   inkscape:window-maximized="1"
   inkscape:current-layer="Capa_1" />
<g
   id="g974"
   transform="translate(0.05613555,0.96851635)">
	<path
   d="m 34.371,13.114 c -0.043,0.217 -0.045,0.441 -0.129,0.646 -0.498,1.202 -1.429,2.197 -2.116,3.305 -0.885,1.414 -8.404,-1.633 -7.435,-3.521 0.365,-0.698 1.788,-2.626 1.896,-3.401 C 26.685,9.452 25.769,8.91 24.923,8.84 22.692,8.66 19.839,8.823 17.47,8.838 V 8.84 c -0.063,0 -0.133,0 -0.197,-10e-4 C 17.208,8.84 17.138,8.84 17.076,8.84 V 8.838 C 14.706,8.823 11.855,8.66 9.623,8.84 8.777,8.91 7.861,9.452 7.959,10.144 8.066,10.919 9.49,12.847 9.855,13.545 10.826,15.433 3.304,18.48 2.419,17.066 1.731,15.959 0.802,14.963 0.304,13.761 0.22,13.556 0.217,13.331 0.174,13.115 -0.929,8.185 3.323,3.155 9.725,2.64 12.171,2.441 14.622,2.329 17.076,2.286 V 2.272 c 0.066,0.002 0.131,0.006 0.197,0.007 0.066,-10e-4 0.131,-0.005 0.197,-0.007 v 0.013 c 2.453,0.044 4.904,0.155 7.35,0.354 6.403,0.515 10.655,5.547 9.551,10.475 z m -4.396,17.01 c 0.069,1.183 -0.703,2.148 -1.723,2.148 H 6.293 c -1.017,0 -1.792,-0.967 -1.722,-2.148 L 5.212,19.341 c 2.327,-0.545 5.301,-1.969 6.38,-3.737 0.601,-0.985 0.665,-2.094 0.171,-3.055 -0.125,-0.24 -0.359,-0.615 -0.628,-1.033 L 11.134,11.514 C 11.126,11.495 11.126,11.495 11.12,11.482 h 11.953 c -0.006,0.017 -0.008,0.02 -0.018,0.044 -0.15,0.361 -0.201,0.638 -0.173,0.847 -0.034,0.061 -0.082,0.138 -0.108,0.188 -0.488,0.948 -0.424,2.058 0.177,3.042 1.079,1.77 4.051,3.191 6.378,3.736 z M 21.473,18.932 c -2.302,-2.301 -6.043,-2.301 -8.346,0 -2.301,2.301 -2.301,6.044 0,8.345 2.083,2.083 5.345,2.273 7.651,0.586 l -1.443,-1.441 c -1.502,0.922 -3.494,0.742 -4.794,-0.559 -1.521,-1.521 -1.521,-3.995 10e-4,-5.517 1.521,-1.521 3.995,-1.521 5.517,0 1.294,1.294 1.477,3.272 0.568,4.772 l 1.445,1.445 c 1.674,-2.306 1.477,-5.554 -0.599,-7.631 z"
   id="path972" />
</g>
<g
   id="g976">
</g>
<g
   id="g978">
</g>
<g
   id="g980">
</g>
<g
   id="g982">
</g>
<g
   id="g984">
</g>
<g
   id="g986">
</g>
<g
   id="g988">
</g>
<g
   id="g990">
</g>
<g
   id="g992">
</g>
<g
   id="g994">
</g>
<g
   id="g996">
</g>
<g
   id="g998">
</g>
<g
   id="g1000">
</g>
<g
   id="g1002">
</g>
<g
   id="g1004">
</g>
<path
   style="fill:#000000;stroke:#000000;stroke-width:0;stroke-linecap:butt;stroke-linejoin:miter;stroke-opacity:1;fill-opacity:1;stroke-miterlimit:4;stroke-dasharray:none"
   d="m 29.385136,20.307516 c 0,0 -2.193957,-0.53941 -3.706911,-1.42754 -1.512955,-0.888131 -2.523072,-1.860927 -2.745937,-2.43635 -0.222866,-0.575423 -0.306189,-0.54327 -0.405369,-1.257715 -0.09918,-0.714445 0.266323,-1.590913 0.33877,-1.717654 0.07245,-0.126741 0.07245,-0.126741 0.07245,-0.126741 0,0 -0.02156,-0.342844 0.05245,-0.49707 0.07401,-0.154227 0.13855,-0.39393 0.13855,-0.39393 h -11.953 c 0,0 0.495461,0.775405 0.715009,1.205625 0.219547,0.430221 0.311943,1.187668 0.241708,1.59832 -0.07024,0.410653 -0.200852,0.923236 -0.725227,1.666989 -0.524375,0.743752 -1.7728228,1.557717 -1.7728228,1.557717 0,0 -1.5175734,0.957265 -2.6014499,1.290459 -1.0838766,0.333194 -1.7652178,0.53989 -1.7652178,0.53989 l -0.3145108,5.317089 -0.2366354,3.998753 -0.094624,1.590035 c 0,0 -0.0083,0.657117 0.3185119,1.213122 0.3268161,0.556005 0.8886313,0.734259 1.1272296,0.795774 0.2385984,0.06151 1.1965947,0.01797 1.1965947,0.01797 l 8.2081635,0.0025 11.634096,-0.01101 1.317643,0.0083 c 0,0 0.281042,-0.02482 0.645688,-0.190597 0.364646,-0.165779 0.693492,-0.700305 0.693492,-0.700305 0,0 0.248358,-0.543031 0.258784,-0.817153 0.01043,-0.274122 -0.126499,-2.712756 -0.126499,-2.712756 L 29.66886,25.094356 Z"
   id="path1574" /><path
   style="fill:#000000;stroke:#000000;stroke-width:0;stroke-linecap:butt;stroke-linejoin:miter;stroke-opacity:1;fill-opacity:1;stroke-miterlimit:4;stroke-dasharray:none"
   d="m 32.127392,18.11331 c 0,0 0.648868,-0.928498 0.85796,-1.24267 0.209092,-0.314172 0.84194,-1.222967 0.84194,-1.222967 l 0.501585,-0.990164 0.07238,-0.40731 0.150572,-0.866181 c 0,0 0.07945,-0.820622 0.0343,-1.437217 C 34.540989,11.330205 34.378925,10.623604 34.04197,9.6794036 33.705016,8.7352036 33.157484,7.9740882 32.078252,6.7723007 30.999021,5.5705132 29.519194,4.8875138 28.11443,4.302197 26.709665,3.7168801 24.694382,3.5592217 23.168978,3.4860859 21.643574,3.4129502 19.235547,3.2991228 19.235547,3.2991228 c 0,0 -1.740774,-0.060162 -2.702495,-0.039197 -0.96172,0.020965 -3.68141,0.1345607 -3.68141,0.1345607 L 9.2048622,3.6621736 c 0,0 -1.2629195,0.1738016 -2.5422529,0.5787527 -1.2793334,0.4049511 -2.328391,1.133865 -2.328391,1.133865 0,0 -0.7702982,0.4823611 -1.5007889,1.1465628 C 2.1029387,7.1855558 1.3707175,8.2462769 1.1999519,8.5187173 1.0291862,8.7911577 0.41766574,9.9653054 0.22891338,10.868222 c -0.18875237,0.902916 -0.21624917,2.09452 -0.079982,2.804849 0.13626713,0.710329 0.15506838,0.890704 0.15506838,0.890704 0,0 0.33752349,0.898645 0.93243184,1.684283 0.5949084,0.785639 1.2282987,1.768043 1.2282987,1.768043 0,0 0.1297791,0.262821 0.5208604,0.333577 0.3910813,0.07076 0.7828817,0.05849 1.4285044,-0.0497 0.6456228,-0.108191 1.0864999,-0.205706 2.8155736,-0.935168 1.7290736,-0.729462 2.446949,-1.718359 2.446949,-1.718359 0,0 0.2642227,-0.329344 0.3274433,-0.716045 0.06322,-0.386701 -0.6051154,-1.237689 -0.6051154,-1.237689 L 8.650094,12.483031 c 0,0 -0.5124462,-0.876161 -0.5823262,-1.114981 -0.06988,-0.238821 -0.1024645,-0.480607 0.067578,-0.778026 C 8.305389,10.292605 8.9166759,9.9456821 9.1333299,9.9138215 9.3499838,9.881961 10.02369,9.7594869 10.835244,9.7413671 c 0.811554,-0.01812 5.273156,0.044689 5.273156,0.044689 l 3.67201,-0.017529 3.126453,-0.050237 c 0,0 1.245215,-0.010209 2.16947,0.098379 0.924255,0.1085878 1.304893,0.5832869 1.304893,0.5832869 0,0 0.256427,0.291457 0.256427,0.48293 0,0.191473 0.01722,0.406492 -0.184902,0.803198 -0.202118,0.396707 -1.393604,2.305234 -1.393604,2.305234 0,0 -0.453328,0.60248 -0.39581,0.951984 0.05752,0.349505 0.294654,0.652092 0.61188,1.049519 0.317225,0.397425 2.079508,1.325186 2.079508,1.325186 0,0 1.346897,0.609664 2.275942,0.856415 0.929046,0.246751 2.072093,0.350166 2.496725,-0.06111 z"
   id="path1576" /></svg>
