<?xml version="1.0" encoding="UTF-8" standalone="no"?>
<svg
   xmlns:dc="http://purl.org/dc/elements/1.1/"
   xmlns:cc="http://creativecommons.org/ns#"
   xmlns:rdf="http://www.w3.org/1999/02/22-rdf-syntax-ns#"
   xmlns:svg="http://www.w3.org/2000/svg"
   xmlns="http://www.w3.org/2000/svg"
   xmlns:sodipodi="http://sodipodi.sourceforge.net/DTD/sodipodi-0.dtd"
   xmlns:inkscape="http://www.inkscape.org/namespaces/inkscape"
   version="1.1"
   id="Capa_1"
   x="0px"
   y="0px"
   width="409.165px"
   height="409.164px"
   viewBox="0 0 409.165 409.164"
   style="enable-background:new 0 0 409.165 409.164;"
   xml:space="preserve"
   sodipodi:docname="user.svg"
   inkscape:version="1.0.2 (e86c870, 2021-01-15)"><metadata
   id="metadata944"><rdf:RDF><cc:Work
       rdf:about=""><dc:format>image/svg+xml</dc:format><dc:type
         rdf:resource="http://purl.org/dc/dcmitype/StillImage" /><dc:title></dc:title></cc:Work></rdf:RDF></metadata><defs
   id="defs942" /><sodipodi:namedview
   pagecolor="#ffffff"
   bordercolor="#666666"
   borderopacity="1"
   objecttolerance="10"
   gridtolerance="10"
   guidetolerance="10"
   inkscape:pageopacity="0"
   inkscape:pageshadow="2"
   inkscape:window-width="1848"
   inkscape:window-height="1016"
   id="namedview940"
   showgrid="false"
   inkscape:zoom="1.0081532"
   inkscape:cx="72.345475"
   inkscape:cy="378.29113"
   inkscape:window-x="1992"
   inkscape:window-y="27"
   inkscape:window-maximized="1"
   inkscape:current-layer="Capa_1" />


<ellipse
   style="opacity:1;fill:#000000;stroke-width:1.28779;fill-opacity:1"
   id="path946"
   cx="204.24139"
   cy="108.95267"
   rx="91.255486"
   ry="107.25803" /><path
   style="fill:#000000;stroke:#000000;stroke-width:0;stroke-linecap:butt;stroke-linejoin:miter;stroke-opacity:1;fill-opacity:1;stroke-miterlimit:4;stroke-dasharray:none"
   d="M 0.51460316,378.64156 48.024674,271.46987 c 0,0 0.598302,-2.95745 3.723669,-6.69426 3.125366,-3.73681 9.303238,-6.48104 9.303238,-6.48104 l 69.196389,-36.20828 c 0,0 2.48594,-1.76248 5.11594,0.165 2.63001,1.92748 12.57645,9.53598 27.07395,15.40562 14.4975,5.86963 29.78953,8.15824 38.27324,8.06981 8.48371,-0.0884 12.81449,0.38793 28.60371,-2.51212 15.78922,-2.90006 32.72259,-12.83436 32.72259,-12.83436 l 11.87567,-8.21351 c 0,0 1.99203,-1.81425 4.66533,-0.32288 2.67329,1.49136 27.96075,14.54608 27.96075,14.54608 l 32.17499,16.87554 c 0,0 11.87263,5.33599 16.87184,9.67331 4.99921,4.33733 7.68875,13.02701 7.68875,13.02701 l 9.8588,21.99042 10.88936,24.68863 13.05227,29.36274 10.4889,23.61425 c 0,0 1.92667,5.58362 1.70801,8.65907 -0.21866,3.07546 -1.30711,9.12327 -3.89103,12.63301 -2.58392,3.50973 -5.52249,6.35731 -8.7962,7.89878 -3.2737,1.54147 -8.01807,2.32261 -8.01807,2.32261 l -29.13334,0.10244 -337.655966,0.0517 c 0,0 -4.548128,-0.29318 -10.680448,-3.28995 -6.1323206,-2.99678 -9.3417368,-10.82807 -10.10507009,-12.93608 -0.76333333,-2.108 -1.47805108,-8.58237 -0.47734275,-12.42188 z"
   id="path948" /></svg>
